   <svg xmlns="http://www.w3.org/2000/svg" style="display: none;">
    <defs>
    <!-- Construction Icon -->
    <symbol id="construction" viewBox="0 0 24 24">
      <path d="M12 2L13.09 8.26L22 9L13.09 9.74L12 16L10.91 9.74L2 9L10.91 8.26L12 2Z"/>
      <path d="M12 2L13.09 8.26L22 9L13.09 9.74L12 16L10.91 9.74L2 9L10.91 8.26L12 2Z"/>
    </symbol>
    
    <!-- F&B Icon -->
    <symbol id="fnb" viewBox="0 0 24 24">
      <path d="M8.1 13.34l2.83-2.83L3.91 3.5c-1.56 1.56-1.56 4.09 0 5.66l4.19 4.18zm6.78-1.81c1.53.71 3.68.21 5.27-1.38 1.91-1.91 2.28-4.65.81-6.12-1.46-1.46-4.20-1.10-6.12.81-1.59 1.59-2.09 3.74-1.38 5.27L3.7 19.87l1.41 1.41L12 14.41l6.88 6.88 1.41-1.41L13.41 13l1.47-1.47z"/>
    </symbol>
    
    <!-- Cleaning Icon -->
    <symbol id="cleaning" viewBox="0 0 24 24">
      <path d="M19.36 2.72L20.78 4.14L15.06 9.85C16.13 11.39 16.28 13.24 15.38 14.44L9.06 8.12C10.26 7.22 12.11 7.37 13.65 8.44L19.36 2.72M5.93 17.57C3.92 15.56 2.69 13.16 2.35 10.92L7.23 8.83L14.67 16.27L12.58 21.15C10.34 20.81 7.94 19.58 5.93 17.57Z"/>
    </symbol>
    
    <!-- General Helper Icon -->
    <symbol id="helper" viewBox="0 0 24 24">
      <path d="M12,2A3,3 0 0,1 15,5V11A3,3 0 0,1 12,14A3,3 0 0,1 9,11V5A3,3 0 0,1 12,2M19,11C19,14.53 16.39,17.44 13,17.93V21H11V17.93C7.61,17.44 5,14.53 5,11H7A5,5 0 0,0 12,16A5,5 0 0,0 17,11H19Z"/>
    </symbol>
    
    <!-- Phone Icon -->
    <symbol id="phone" viewBox="0 0 24 24">
      <path d="M6.62,10.79C8.06,13.62 10.38,15.94 13.21,17.38L15.41,15.18C15.69,14.9 16.08,14.82 16.43,14.93C17.55,15.3 18.75,15.5 20,15.5A1,1 0 0,1 21,16.5V20A1,1 0 0,1 20,21A17,17 0 0,1 3,4A1,1 0 0,1 4,3H7.5A1,1 0 0,1 8.5,4C8.5,5.25 8.7,6.45 9.07,7.57C9.18,7.92 9.1,8.31 8.82,8.59L6.62,10.79Z"/>
    </symbol>
    
    <!-- Email Icon -->
    <symbol id="email" viewBox="0 0 24 24">
      <path d="M20,8L12,13L4,8V6L12,11L20,6M20,4H4C2.89,4 2,4.89 2,6V18A2,2 0 0,0 4,20H20A2,2 0 0,0 22,18V6C22,4.89 21.1,4 20,4Z"/>
    </symbol>
    
    <!-- Location Icon -->
    <symbol id="location" viewBox="0 0 24 24">
      <path d="M12,11.5A2.5,2.5 0 0,1 9.5,9A2.5,2.5 0 0,1 12,6.5A2.5,2.5 0 0,1 14.5,9A2.5,2.5 0 0,1 12,11.5M12,2A7,7 0 0,0 5,9C5,14.25 12,22 12,22C12,22 19,14.25 19,9A7,7 0 0,0 12,2Z"/>
    </symbol>
    
    <!-- Clock Icon -->
    <symbol id="clock" viewBox="0 0 24 24">
      <path d="M12,2A10,10 0 0,0 2,12A10,10 0 0,0 12,22A10,10 0 0,0 22,12A10,10 0 0,0 12,2M16.2,16.2L11,13V7H12.5V12.2L17,14.7L16.2,16.2Z"/>
    </symbol>
  </defs>
</svg>
